<?xml version="1.0" standalone="no"?><!DOCTYPE svg PUBLIC "-//W3C//DTD SVG 1.1//EN" "http://www.w3.org/Graphics/SVG/1.1/DTD/svg11.dtd"><svg t="1746340175277" class="icon" viewBox="0 0 1024 1024" version="1.1" xmlns="http://www.w3.org/2000/svg" p-id="646" xmlns:xlink="http://www.w3.org/1999/xlink" width="32" height="32"><path d="M176 68.16c10.24-5.76 23.04-5.44 33.28 0.96l650.56 416c10.24 6.4 16 18.56 14.4 30.72-1.28 12.16-9.92 22.4-21.44 26.56l-208.32 70.4 120.32 208c8.64 15.36 3.52 34.88-11.84 43.52l-176 101.76a31.872 31.872 0 0 1-43.52-11.84l-120.32-208L248 891.52c-9.28 8-22.4 10.24-33.6 5.44-11.2-4.8-18.88-16-19.52-28.16L160 97.6c-0.64-12.16 5.76-23.36 16-29.44z m50.88 88L256 799.36l144.32-127.04c7.04-6.08 16.96-8.96 26.24-7.36 9.6 1.6 17.92 7.04 22.72 15.36l123.52 214.4 120.32-69.76L569.6 610.88c-4.8-8.32-5.76-18.24-2.24-27.2s10.56-16 19.84-19.2l182.08-61.44-542.4-346.88z" p-id="647" fill="#2c2c2c"></path></svg>