<?xml version="1.0" standalone="no"?><!DOCTYPE svg PUBLIC "-//W3C//DTD SVG 1.1//EN" "http://www.w3.org/Graphics/SVG/1.1/DTD/svg11.dtd"><svg t="1746347050055" class="icon" viewBox="0 0 1024 1024" version="1.1" xmlns="http://www.w3.org/2000/svg" p-id="6037" xmlns:xlink="http://www.w3.org/1999/xlink" width="32" height="32"><path d="M298.7 928c-4.1 0-8.3-0.8-12.2-2.4-12-5-19.8-16.6-19.8-29.6V170.7c0-12.9 7.8-24.6 19.8-29.6s25.7-2.2 34.9 6.9l512 512c9.2 9.2 11.9 22.9 6.9 34.9s-16.6 19.8-29.6 19.8H525.3l-204 204c-6.1 6-14.3 9.3-22.6 9.3z m32-680.1v570.8L489.4 660c6-6 14.1-9.4 22.6-9.4h221.4L330.7 247.9z" fill="#565A66" p-id="6038"></path></svg>