<?xml version="1.0" standalone="no"?><!DOCTYPE svg PUBLIC "-//W3C//DTD SVG 1.1//EN" "http://www.w3.org/Graphics/SVG/1.1/DTD/svg11.dtd"><svg t="1746347445315" class="icon" viewBox="0 0 1024 1024" version="1.1" xmlns="http://www.w3.org/2000/svg" p-id="2707" xmlns:xlink="http://www.w3.org/1999/xlink" width="32" height="32"><path d="M801.806711 762.211038h-17.588587L536.748011 161.679297a27.647778 27.647778 0 0 0-50.605933 0L239.771877 762.211038h-18.698498c-10.999116 0-20.898321 5.509557-24.198055 15.408761-7.699381 19.798409 6.59947 38.486907 25.297967 38.486908h79.193636c13.198939 0 25.297967-8.789294 27.49779-21.998233a26.097903 26.097903 0 0 0-21.998232-29.697613l50.595934-122.08019h222.172146l48.356114 122.08019c-13.198939 2.209822-24.198055 14.30885-21.998232 29.697613 2.199823 13.208939 14.298851 21.998232 27.49779 21.998233h168.316474c10.999116 0 20.90832-5.489559 24.208054-15.388764 8.799293-19.798409-5.499558-38.506906-24.208054-38.506905zM376.160916 587.335091l90.182753-219.982322 90.192752 219.982322zM33.03849 475.184104a16.91864 16.91864 0 0 0 16.508673 16.508673 16.92864 16.92864 0 0 0 16.488675-16.508673v-32.997349a16.92864 16.92864 0 0 0-16.498674-16.508673 16.91864 16.91864 0 0 0-16.498674 16.508673z m0-105.581516a16.91864 16.91864 0 0 0 16.508673 16.498674 16.91864 16.91864 0 0 0 16.488675-16.538671v-32.997348a16.91864 16.91864 0 0 0-16.498674-16.488675 16.91864 16.91864 0 0 0-16.498674 16.478676z m0 211.17303a16.91864 16.91864 0 0 0 16.508673 16.498674 16.91864 16.91864 0 0 0 16.488675-16.538671v-32.997348a16.91864 16.91864 0 0 0-16.498674-16.488675 16.908641 16.908641 0 0 0-16.498674 16.488675zM49.497167 279.369839a16.91864 16.91864 0 0 0 16.538671-16.498674v-32.997348c-1.099912-8.799293-7.70938-15.398763-16.498674-15.398763a16.91864 16.91864 0 0 0-16.498674 16.498675v32.997348c0 8.799293 6.609469 15.398763 16.508673 15.398762zM33.03849 686.327136a16.91864 16.91864 0 0 0 16.508673 16.498674 16.91864 16.91864 0 0 0 16.488675-16.498674v-32.997348a16.91864 16.91864 0 0 0-16.498674-16.498675 16.91864 16.91864 0 0 0-16.498674 16.498675z m0 105.581515c0 9.899204 6.609469 16.508673 16.508673 16.508674a16.92864 16.92864 0 0 0 16.488675-16.508674v-32.997348a16.92864 16.92864 0 0 0-16.498674-16.508673 16.92864 16.92864 0 0 0-16.498674 16.518672z m924.925672-316.724547a16.498674 16.498674 0 1 0 32.997348 0v-32.997349a16.498674 16.498674 0 1 0-32.997348 0z m0-105.581516a16.498674 16.498674 0 1 0 32.997348 0v-32.997348a16.498674 16.498674 0 0 0-32.997348 0z m0 211.17303a16.498674 16.498674 0 0 0 32.997348 0v-32.997348a16.498674 16.498674 0 0 0-32.997348 0z m15.398762-301.365782a16.91864 16.91864 0 0 0 16.498674-16.498674v-32.997348a16.498674 16.498674 0 1 0-32.997348 0v32.997348c1.099912 9.899204 7.699381 16.498674 16.498674 16.498674z m-15.398762 406.967296a16.498674 16.498674 0 1 0 32.997348 0v-32.997348a16.498674 16.498674 0 0 0-32.997348 0z m0 105.581515a16.498674 16.498674 0 1 0 32.997348 0v-32.997348a16.498674 16.498674 0 1 0-32.997348 0zM475.152961 957.995304h-32.997348a16.498674 16.498674 0 0 0 0 32.997349h32.997348a16.498674 16.498674 0 0 0 0-32.997349z m-105.591514 0h-32.997349a16.498674 16.498674 0 0 0 0 32.997349h32.997349a16.498674 16.498674 0 1 0 0-32.997349z m211.173029 0h-32.997348a16.498674 16.498674 0 0 0 0 32.997349h32.997348a16.498674 16.498674 0 0 0 0-32.997349z m-317.864456 0h-32.997348a16.498674 16.498674 0 0 0 0 32.997349h32.997348a16.91864 16.91864 0 0 0 16.498675-16.498675 16.198698 16.198698 0 0 0-16.498675-16.498674z m-104.481603-10.999116h-49.496023v-15.388763a17.378603 17.378603 0 0 0-17.598585-17.608585H64.89593v-52.795757c0-9.899204-7.699381-17.598586-16.508673-17.598586s-16.488675 7.699381-16.488675 17.598586v52.795757H17.599731A17.378603 17.378603 0 0 0 0.041142 931.607425v73.684078a17.368604 17.368604 0 0 0 17.598585 17.598586h73.694078a17.368604 17.368604 0 0 0 17.598586-17.598586v-15.398762h49.496022c9.889205-2.199823 17.588587-10.999116 17.588587-19.798409 0-9.899204-17.588587-23.098144-17.588587-23.098144z m527.957572 10.999116h-32.997348a16.498674 16.498674 0 0 0 0 32.997349h32.997348a16.498674 16.498674 0 0 0 0-32.997349z m105.581516 0h-32.997349a16.498674 16.498674 0 1 0 0 32.997349h32.997349a16.91864 16.91864 0 0 0 16.508673-16.498675 16.208697 16.208697 0 0 0-16.508673-16.498674zM442.155613 64.887076h32.997348a16.908641 16.908641 0 0 0 16.498674-16.498675 16.91864 16.91864 0 0 0-16.498674-16.488675h-32.997348a16.908641 16.908641 0 0 0-16.498674 16.488675 16.898642 16.898642 0 0 0 16.498674 16.498675z m-105.591515 0h32.997349a16.908641 16.908641 0 0 0 16.498674-16.498675 16.91864 16.91864 0 0 0-16.498674-16.488675h-32.997349a16.91864 16.91864 0 0 0-16.498674 16.488675 16.908641 16.908641 0 0 0 16.498674 16.498675z m211.17303 0h32.997348a16.908641 16.908641 0 0 0 16.498675-16.498675 16.91864 16.91864 0 0 0-16.498675-16.488675h-32.997348a16.908641 16.908641 0 0 0-16.488675 16.488675 16.908641 16.908641 0 0 0 16.488675 16.498675z m-316.714548 0h32.997348a16.908641 16.908641 0 0 0 16.498674-16.498675 16.91864 16.91864 0 0 0-16.498674-16.488675h-32.997348c-9.899204 1.089912-16.498674 7.699381-16.498674 17.588587s6.59947 15.398763 16.498674 15.398763z m-73.694078-31.897437h-49.496023V17.600876A17.368604 17.368604 0 0 0 90.183898 0.00229H17.599731A17.368604 17.368604 0 0 0 0.041142 17.600876v73.694077a17.368604 17.368604 0 0 0 17.598585 17.598586h15.398763v49.486023c2.209822 9.899204 10.999116 17.598586 19.808408 17.598586s23.098144-17.598586 23.098144-17.598586V108.893539h15.398762a17.368604 17.368604 0 0 0 17.598586-17.598586V64.887076h49.496023a16.908641 16.908641 0 0 0 16.488675-16.498675c-1.099912-8.789294-7.699381-15.398763-17.598586-15.398762z m496.050137 31.897437h32.997348a16.908641 16.908641 0 0 0 16.498674-16.498675 16.91864 16.91864 0 0 0-16.498674-16.488675h-32.997348a16.91864 16.91864 0 0 0-16.498675 16.488675 16.908641 16.908641 0 0 0 16.498675 16.498675z m106.691426 0h32.997348a14.998795 14.998795 0 0 0 15.398763-15.398763 16.91864 16.91864 0 0 0-16.508674-16.498674h-32.997348a16.92864 16.92864 0 0 0-16.508673 16.498674c0 8.799293 7.70938 15.398763 17.608585 15.398763zM1005.290359 0.00229h-73.684079a17.378603 17.378603 0 0 0-17.638583 17.598586v15.388763h-49.456025c-9.899204 2.209822-17.608585 10.999116-17.608585 19.798409s17.608585 23.108143 17.608585 23.108143h49.456025v15.398762a17.378603 17.378603 0 0 0 17.608585 17.598586h26.38788v52.785758c0 9.899204 7.699381 17.598586 16.498674 17.598586s16.498674-7.699381 16.498674-17.598586V108.893539h15.398763a17.368604 17.368604 0 0 0 17.598585-17.598586V17.600876c-1.099912-9.899204-8.799293-17.598586-18.698497-17.598586z m0 913.99655h-15.398763v-49.486023c-2.199823-9.899204-10.999116-17.608585-19.798409-17.608585-9.899204 0-23.098144 17.608585-23.098144 17.608585v49.486023h-15.388763a17.388603 17.388603 0 0 0-17.638583 17.608585v26.387879h-49.456025a16.498674 16.498674 0 0 0 0 32.997349h49.456025v15.398762a17.378603 17.378603 0 0 0 17.608585 17.598586h73.684079a17.368604 17.368604 0 0 0 17.598586-17.598586v-73.694078c0-10.999116-7.699381-18.698497-17.598586-18.698497z m0 0" fill="#565A66" p-id="2708"></path></svg>